<?xml version="1.0" encoding="iso-8859-1"?>
<!-- Generator: Adobe Illustrator 19.0.0, SVG Export Plug-In . SVG Version: 6.00 Build 0)  -->
<svg version="1.1" id="Layer_1" xmlns="http://www.w3.org/2000/svg" xmlns:xlink="http://www.w3.org/1999/xlink" x="0px" y="0px"
	 viewBox="0 0 512.001 512.001" style="enable-background:new 0 0 512.001 512.001;" xml:space="preserve">
<path style="fill:#F9BD6E;" d="M455.174,247.748c-1.21-15.07-11.096-28.053-25.328-33.264c-14.228-5.212-30.214-1.699-40.944,8.996
	l-6.308,6.288c-10.927,10.89-28.7,10.902-39.614,0.025c-2.319-2.312-4.139-4.935-5.471-7.732
	c-17.494,18.625-35.551,36.717-54.159,54.23l-32.806-32.804c43.218-45.906,89.921-88.493,139.663-127.368
	c-1.978-7.55-6.21-14.397-12.245-19.57c-42.688-36.593-97.358-55.637-153.941-53.622c-56.885,2.025-110.355,25.207-150.562,65.28
	c-87.423,87.136-87.504,228.833-0.184,315.868c87.32,87.033,229.484,86.952,316.907-0.185
	C436.744,377.479,460.432,313.278,455.174,247.748z"/>
<g style="opacity:0.1;">
	<path d="M107.055,424.075c-87.32-87.035-87.239-228.732,0.184-315.868c38.135-38.01,88.208-60.808,141.809-64.786
		c-8.28-0.618-16.633-0.793-25.029-0.494c-56.885,2.025-110.355,25.207-150.562,65.28c-87.423,87.136-87.504,228.833-0.184,315.868
		c47.918,47.759,112.349,69.281,175.19,64.584C196.876,484.81,146.398,463.288,107.055,424.075z"/>
</g>
<path style="fill:#D644A4;" d="M312.003,104.895c13.166,11.654,14.346,31.751,2.634,44.888
	c-11.708,13.136-31.869,14.335-45.033,2.679c-13.164-11.657-14.345-31.757-2.636-44.893
	C278.678,94.432,298.841,93.236,312.003,104.895z"/>
<path style="fill:#FFD655;" d="M174.082,95.628c17.586-1.046,32.677,12.316,33.706,29.85c1.028,17.528-12.394,32.589-29.979,33.632
	c-17.59,1.048-32.677-12.314-33.708-29.847C143.068,111.732,156.493,96.673,174.082,95.628z"/>
<path style="fill:#38CCAA;" d="M69.871,186.307c11.708-13.136,31.869-14.339,45.035-2.681c13.166,11.659,14.345,31.756,2.634,44.892
	c-11.71,13.136-31.872,14.335-45.036,2.678C59.341,219.54,58.161,199.441,69.871,186.307z"/>
<path style="fill:#6FA7F7;" d="M60.418,323.804C59.39,306.275,72.81,291.216,90.4,290.169c17.588-1.045,32.677,12.318,33.706,29.85
	c1.03,17.53-12.394,32.588-29.979,33.635C76.537,354.701,61.447,341.337,60.418,323.804z"/>
<path style="fill:#543B93;" d="M151.26,427.583c-13.164-11.657-14.345-31.752-2.634-44.891
	c11.708-13.136,31.872-14.337,45.035-2.679c13.166,11.659,14.343,31.754,2.636,44.891
	C184.586,438.042,164.422,439.241,151.26,427.583z"/>
<path style="fill:#FFFFFF;" d="M289.182,436.848c-17.588,1.045-32.677-12.316-33.708-29.85c-1.028-17.53,12.396-32.59,29.983-33.637
	c17.588-1.043,32.679,12.319,33.708,29.851C320.197,420.742,306.77,435.803,289.182,436.848z"/>
<path style="fill:#EF3E3B;" d="M393.394,346.17c-11.71,13.136-31.872,14.336-45.037,2.678
	c-13.166-11.659-14.343-31.757-2.633-44.893c11.71-13.136,31.872-14.334,45.035-2.676
	C403.925,312.933,405.103,333.036,393.394,346.17z"/>
<path style="fill:#38CCAA;" d="M444.335,66.021l38.843-38.837c5.34-5.339,13.427-5.994,17.965-1.455
	c4.541,4.539,3.886,12.622-1.453,17.962l-38.845,38.837L444.335,66.021z"/>
<polygon style="fill:#E5E5E5;" points="444.335,66.021 407.59,102.762 424.101,119.269 424.099,119.271 460.846,82.53 "/>
<path style="fill:#B59472;" d="M251.335,242.582c-0.411-0.409-1.019-0.551-1.589-0.373c-11.653,3.61-22.23,12.855-32.334,28.262
	c-8.71,13.276-16.016,29.526-22.457,43.861c-5.158,11.47-10.027,22.305-14.967,30.324c-0.398,0.644-0.315,1.46,0.202,1.976
	c0.514,0.515,1.33,0.599,1.976,0.2c8.019-4.94,18.855-9.81,30.328-14.963c14.337-6.443,30.589-13.746,43.867-22.455
	c15.408-10.103,24.658-20.678,28.268-32.329c0.178-0.57,0.034-1.181-0.375-1.589L251.335,242.582z"/>
<g style="opacity:0.1;">
	<path d="M243.965,266.589c-8.71,13.279-16.012,29.525-22.455,43.862c-3.545,7.882-6.951,15.438-10.34,22.012
		c-10.978,4.934-21.298,9.62-29.006,14.369c-0.645,0.399-1.461,0.316-1.976-0.2c-0.516-0.516-0.6-1.331-0.202-1.976
		c4.941-8.02,9.811-18.855,14.967-30.324c6.441-14.335,13.747-30.584,22.457-43.861c10.104-15.407,20.682-24.652,32.334-28.262
		c0.572-0.178,1.18-0.034,1.589,0.373l6.771,6.771C253.258,253.862,248.562,259.582,243.965,266.589z"/>
</g>
<path style="fill:#38CCAA;" d="M407.59,102.761c-55.966,42.163-108.224,88.976-156.221,139.857l32.849,32.845
	c50.888-47.991,97.711-100.241,139.882-156.194L407.59,102.761z"/>
<g>
	<path style="fill:#FFFFFF;" d="M289.515,203.919l33.409,33.404c-6.308,6.494-12.686,12.918-19.137,19.27l-33.547-33.542
		C276.594,216.604,283.018,210.228,289.515,203.919z"/>
	<path style="fill:#FFFFFF;" d="M359.94,197.52c-6.029,6.77-12.125,13.474-18.298,20.111l-32.435-32.427
		c6.639-6.171,13.345-12.267,20.116-18.294L359.94,197.52z"/>
</g>
<g style="opacity:0.1;">
	<path d="M265.317,258.261l-14.776-14.774c48.22-51.218,100.764-98.323,157.05-140.727l14.776,14.773
		C366.083,159.938,313.539,207.044,265.317,258.261z"/>
</g>
<path d="M264.411,158.33c7.269,6.438,16.626,9.984,26.345,9.984c11.353,0,22.189-4.854,29.733-13.315
	c7.064-7.923,10.608-18.113,9.984-28.691c-0.625-10.567-5.338-20.256-13.273-27.278c-7.271-6.441-16.629-9.988-26.349-9.988
	c-11.351,0-22.187,4.853-29.731,13.314c-7.064,7.923-10.606,18.112-9.982,28.69C251.761,141.612,256.476,151.303,264.411,158.33z
	 M272.819,112.784c4.571-5.128,11.143-8.07,18.031-8.07c5.888,0,11.556,2.147,15.959,6.049c4.792,4.242,7.638,10.091,8.016,16.469
	c0.377,6.389-1.766,12.545-6.036,17.337c-4.571,5.129-11.145,8.072-18.033,8.072c-5.888,0-11.553-2.147-15.956-6.045
	c-4.792-4.243-7.64-10.095-8.016-16.475C266.407,123.73,268.55,117.575,272.819,112.784z"/>
<path d="M175.873,167.006c0.796,0,1.604-0.024,2.398-0.071c21.87-1.297,38.621-20.1,37.341-41.915
	c-1.227-20.907-18.622-37.285-39.602-37.285c-0.794,0-1.6,0.023-2.394,0.071c-21.874,1.299-38.625,20.104-37.341,41.918
	C137.507,150.629,154.898,167.006,175.873,167.006z M174.547,103.451c0.49-0.028,0.98-0.043,1.463-0.043
	c12.691,0,23.215,9.896,23.955,22.53c0.773,13.193-9.374,24.566-22.624,25.351c-13.322,0.781-24.647-9.369-25.418-22.485
	C151.147,115.612,161.296,104.238,174.547,103.451z"/>
<path d="M133.374,205.045c-0.623-10.568-5.336-20.26-13.271-27.287c-7.271-6.438-16.629-9.984-26.345-9.984
	c-11.355,0-22.192,4.855-29.737,13.317c-7.061,7.923-10.608,18.112-9.982,28.69c0.625,10.568,5.336,20.256,13.271,27.28
	c7.271,6.439,16.629,9.985,26.347,9.985c11.353,0,22.189-4.854,29.733-13.315C130.454,225.809,133.998,215.622,133.374,205.045z
	 M111.69,223.303c-4.571,5.128-11.143,8.071-18.033,8.071c-5.886,0-11.553-2.147-15.957-6.046
	c-4.792-4.242-7.639-10.092-8.016-16.471c-0.377-6.389,1.767-12.545,6.036-17.336c4.574-5.13,11.147-8.074,18.037-8.074
	c5.886,0,11.551,2.147,15.954,6.044c4.794,4.245,7.641,10.097,8.019,16.477C118.104,212.356,115.962,218.512,111.69,223.303z"/>
<path d="M92.326,282.275c-0.792,0-1.598,0.024-2.392,0.071c-21.87,1.301-38.618,20.105-37.338,41.916
	c1.225,20.908,18.618,37.286,39.598,37.286c0.796,0,1.602-0.024,2.398-0.071c21.87-1.303,38.618-20.107,37.338-41.917
	C130.704,298.652,113.308,282.275,92.326,282.275z M93.662,345.832c-13.331,0.797-24.651-9.37-25.418-22.487
	c-0.775-13.192,9.374-24.566,22.62-25.355c0.49-0.028,0.98-0.043,1.463-0.043c12.693,0,23.217,9.896,23.957,22.529
	C117.057,333.668,106.91,345.042,93.662,345.832z"/>
<path d="M146.063,433.449c7.271,6.44,16.629,9.987,26.347,9.987c11.355,0,22.192-4.855,29.737-13.318
	c7.061-7.925,10.606-18.113,9.98-28.69c-0.625-10.567-5.338-20.256-13.271-27.281c-7.271-6.439-16.626-9.985-26.347-9.985
	c-11.353,0-22.19,4.854-29.733,13.316c-7.064,7.923-10.608,18.112-9.984,28.689C133.417,416.734,138.131,426.424,146.063,433.449z
	 M154.476,387.906c4.571-5.129,11.145-8.072,18.033-8.072c5.888,0,11.553,2.146,15.956,6.045c4.794,4.244,7.641,10.094,8.019,16.473
	c0.377,6.389-1.767,12.546-6.036,17.337c-4.571,5.13-11.145,8.074-18.035,8.074c-5.886,0-11.553-2.148-15.956-6.047
	c-4.792-4.244-7.639-10.095-8.016-16.474C148.061,398.854,150.204,392.697,154.476,387.906z"/>
<path d="M287.382,365.467c-0.792,0-1.596,0.023-2.39,0.071c-21.87,1.303-38.621,20.108-37.341,41.919
	c1.227,20.907,18.622,37.285,39.602,37.285c0.794,0,1.6-0.023,2.394-0.071c21.872-1.299,38.623-20.104,37.343-41.918
	C325.764,381.844,308.366,365.467,287.382,365.467z M288.719,429.026c-13.322,0.759-24.651-9.37-25.42-22.487
	c-0.775-13.192,9.376-24.567,22.624-25.356c0.488-0.029,0.976-0.044,1.46-0.044c12.696,0,23.221,9.897,23.962,22.531
	C312.119,416.864,301.968,428.238,288.719,429.026z"/>
<path d="M395.955,295.412c-7.271-6.439-16.631-9.986-26.349-9.986c-11.353,0-22.189,4.854-29.731,13.315
	c-7.064,7.923-10.61,18.112-9.986,28.69c0.625,10.568,5.338,20.259,13.273,27.284c7.271,6.439,16.629,9.985,26.347,9.985
	c11.353,0,22.19-4.854,29.735-13.316c7.061-7.922,10.608-18.113,9.982-28.692C408.603,312.123,403.888,302.436,395.955,295.412z
	 M387.546,340.956c-4.574,5.129-11.147,8.072-18.035,8.072c-5.888,0-11.556-2.147-15.958-6.046
	c-4.792-4.244-7.638-10.095-8.016-16.474c-0.377-6.389,1.767-12.546,6.038-17.338c4.571-5.128,11.143-8.071,18.031-8.071
	c5.888,0,11.556,2.148,15.959,6.047c4.792,4.242,7.637,10.092,8.014,16.471C393.96,330.008,391.815,336.166,387.546,340.956z"/>
<path d="M506.687,20.188c-3.428-3.427-8.113-5.314-13.19-5.314c-5.775,0-11.557,2.466-15.859,6.768l-38.839,38.834
	c0,0-0.004,0.003-0.004,0.004l-0.004,0.004l-36.366,36.36c-2.967,2.238-5.92,4.496-8.869,6.762
	c-2.672-4.887-6.194-9.318-10.496-13.006C338.874,52.723,282.282,33.005,223.74,35.095c-58.872,2.096-114.207,26.09-155.817,67.561
	C24.123,146.314,0,204.435,0,266.308c0,61.776,24.057,119.777,67.741,163.318c45.153,45.003,104.471,67.502,163.816,67.502
	c59.431,0,118.886-22.566,164.156-67.687c17.138-17.083,31.42-36.613,42.449-58.047c1.981-3.848,0.467-8.573-3.381-10.555
	c-3.845-1.977-8.573-0.465-10.556,3.382c-10.282,19.981-23.596,38.189-39.578,54.118c-84.369,84.094-221.57,84.177-305.841,0.185
	c-40.712-40.579-63.133-94.637-63.133-152.217c0-57.677,22.486-111.854,63.317-152.55c38.798-38.671,90.405-61.044,145.308-62.999
	c54.609-1.933,107.37,16.432,148.562,51.74c3.51,3.01,6.263,6.754,8.111,10.905c-46.99,37.077-91.527,77.72-132.721,121.124
	c-0.276,0.061-0.551,0.112-0.822,0.196c-13.464,4.17-25.425,14.458-36.569,31.449c-9.061,13.811-16.494,30.352-23.073,44.994
	c-5.041,11.213-9.802,21.804-14.459,29.363c-2.323,3.749-1.782,8.535,1.321,11.645c1.818,1.816,4.214,2.755,6.64,2.755
	c1.713,0,3.439-0.468,4.989-1.425c7.584-4.673,18.192-9.439,29.426-14.487c4.649-2.088,9.455-4.246,14.365-6.547
	c3.92-1.836,5.608-6.501,3.773-10.421c-1.837-3.92-6.502-5.61-10.421-3.773c-4.8,2.247-9.549,4.38-14.143,6.446
	c-4.529,2.034-8.961,4.026-13.184,6.004c1.978-4.217,3.967-8.647,6.006-13.181c6.321-14.063,13.483-30.002,21.863-42.774
	c7.644-11.657,15.38-19.307,23.525-23.252l1.381,1.381l-6.516,6.517c-3.062,3.061-3.062,8.023-0.002,11.083
	c1.531,1.531,3.537,2.296,5.543,2.296c2.004,0,4.01-0.765,5.541-2.295l6.518-6.519l2.897,2.898l-14.216,14.213
	c-3.062,3.06-3.062,8.022,0,11.082c1.531,1.531,3.535,2.296,5.541,2.296s4.01-0.765,5.541-2.295l14.218-14.215l1.381,1.382
	c-3.942,8.138-11.594,15.871-23.253,23.518c-3.621,2.373-4.631,7.231-2.257,10.85c2.373,3.621,7.233,4.632,10.851,2.256
	c16.994-11.143,27.283-23.102,31.454-36.553c0.086-0.28,0.141-0.562,0.2-0.844c15.076-14.304,29.859-29.054,44.267-44.151
	c0.287,0.309,0.567,0.625,0.869,0.925c13.963,13.917,36.696,13.908,50.678-0.025l6.308-6.288
	c8.545-8.518,21.388-11.341,32.719-7.188c11.316,4.143,19.249,14.559,20.21,26.532c2.194,27.341-0.76,54.445-8.775,80.562
	c-1.27,4.137,1.055,8.52,5.194,9.791c4.13,1.264,8.52-1.054,9.79-5.193c8.6-28.017,11.768-57.091,9.415-86.414
	c-1.449-18.055-13.4-33.754-30.443-39.995c-17.025-6.24-36.329-1.999-49.174,10.804l-6.308,6.289
	c-7.873,7.85-20.682,7.864-28.549,0.024c-0.406-0.405-0.786-0.83-1.151-1.263c11.171-12.001,22.1-24.201,32.726-36.566
	c2.822-3.282,2.449-8.23-0.835-11.051c-3.282-2.822-8.231-2.448-11.051,0.835c-2.845,3.311-5.725,6.605-8.612,9.892l-18.832-18.83
	c21.437-18.822,43.513-36.893,66.122-54.127l6.849,6.847c-8.22,10.782-16.694,21.523-25.245,32.001
	c-2.737,3.354-2.237,8.29,1.116,11.027c3.353,2.737,8.29,2.235,11.027-1.116c9.993-12.245,19.877-24.842,29.39-37.452l75.218-75.206
	c3.896-3.896,6.276-8.936,6.7-14.19C512.391,29.393,510.479,23.979,506.687,20.188z M283.497,265.357l-22.02-22.017
	c2.923-3.066,5.863-6.115,8.818-9.151l22.347,22.343C289.602,259.488,286.56,262.437,283.497,265.357z M303.805,245.532
	l-22.5-22.498c2.704-2.708,5.421-5.406,8.151-8.091l22.433,22.431C309.205,240.103,306.515,242.828,303.805,245.532z
	 M322.811,226.13l-22.106-22.105c2.764-2.649,5.541-5.287,8.331-7.912l21.694,21.689C328.103,220.59,325.463,223.366,322.811,226.13
	z M349.153,197.819c-2.563,2.845-5.153,5.674-7.745,8.497l-20.888-20.881c2.824-2.591,5.663-5.168,8.511-7.733L349.153,197.819z
	 M424.103,108.188l-5.428-5.426l25.662-25.659l5.428,5.426L424.103,108.188z M496.311,33.779c-0.122,1.528-0.912,3.121-2.161,4.372
	l-33.302,33.298l-5.428-5.427l33.3-33.295c1.366-1.365,3.151-2.179,4.777-2.179c0.631,0,1.508,0.125,2.109,0.725
	C496.338,32.005,496.362,33.157,496.311,33.779z"/>
<g>
</g>
<g>
</g>
<g>
</g>
<g>
</g>
<g>
</g>
<g>
</g>
<g>
</g>
<g>
</g>
<g>
</g>
<g>
</g>
<g>
</g>
<g>
</g>
<g>
</g>
<g>
</g>
<g>
</g>
</svg>
